mtllib floor.mtl

v -200.0 -45.0 200.0
v 200.0 -45.0 200.0
v 200.0 -45.0 -200.0
v -200.0 -45.0 -200.0
v -200.0 -55.0 200.0
v 200.0 -55.0 200.0
v 200.0 -55.0 -200.0
v -200.0 -55.0 -200.0

vn 1.0 0.0 0.0
vn -1.0 0.0 0.0
vn 0.0 1.0 0.0
vn 0.0 -1.0 0.0
vn 0.0 0.0 1.0
vn 0.0 0.0 -1.0

vt 0.0 0.0
vt 0.0 10.0
vt 10.0 10.0
vt 10.0 0.0
vt 0.25 0.0
vt 0.25 10.0

usemtl checkerboard

f 6/1/1 7/2/1 3/6/1
f 3/6/1 2/5/1 6/1/1

f 8/1/2 5/2/2 1/6/2
f 1/6/2 4/5/2 8/1/2

f 1/1/3 2/2/3 3/3/3
f 3/3/3 4/4/3 1/1/3

f 7/2/4 6/3/4 5/4/4
f 5/4/4 8/1/4 7/2/4

f 5/5/5 6/6/5 2/2/5
f 2/2/5 1/1/5 5/5/5

f 7/5/6 8/6/6 4/2/6
f 4/2/6 3/1/6 7/5/6
